<svg width="466" height="216" viewBox="0 0 466 216" fill="none" xmlns="http://www.w3.org/2000/svg">
<path d="M200.294 95.5792H212.043L197.971 111.185L213.425 128.506H201.888C201.614 128.506 189.607 114.433 189.607 114.433V128.49H180.331V85.9852H189.607V108.786L200.294 95.5792Z" fill="white"/>
<path fill-rule="evenodd" clip-rule="evenodd" d="M212.635 111.959C212.635 102.38 220.393 94.6076 229.956 94.6076C239.52 94.6076 247.277 102.38 247.277 111.959C247.277 121.538 239.52 129.31 229.956 129.31C220.393 129.31 212.635 121.553 212.635 111.959ZM221.744 111.974C221.744 116.756 225.417 120.627 229.956 120.627C234.495 120.627 238.169 116.756 238.169 111.974C238.169 107.192 234.495 103.321 229.956 103.321C225.417 103.321 221.744 107.192 221.744 111.974Z" fill="white"/>
<path fill-rule="evenodd" clip-rule="evenodd" d="M310.382 111.959C310.382 102.38 318.139 94.6076 327.703 94.6076C337.267 94.6076 345.024 102.38 345.024 111.959C345.024 121.538 337.267 129.31 327.703 129.31C318.139 129.31 310.382 121.553 310.382 111.959ZM319.49 111.974C319.49 116.786 323.164 120.688 327.703 120.688C332.242 120.688 335.916 116.786 335.916 111.974C335.916 107.162 332.242 103.26 327.703 103.26C323.164 103.26 319.49 107.162 319.49 111.974Z" fill="white"/>
<path fill-rule="evenodd" clip-rule="evenodd" d="M367.263 94.6076C357.7 94.6076 349.942 102.38 349.942 111.959C349.942 121.553 357.7 129.31 367.263 129.31C376.827 129.31 384.584 121.538 384.584 111.959C384.584 102.38 376.827 94.6076 367.263 94.6076ZM367.263 120.688C362.724 120.688 359.051 116.786 359.051 111.974C359.051 107.162 362.724 103.26 367.263 103.26C371.802 103.26 375.476 107.162 375.476 111.974C375.476 116.786 371.802 120.688 367.263 120.688Z" fill="white"/>
<path d="M410.133 121.128C406.657 121.72 404.683 120.323 403.863 119.473C403.013 118.593 402.391 117.166 402.391 116.24V103.397H411.044V95.6399H402.391V86.6835H393.222V95.6399H386.952V103.397H393.222V116.24C393.222 123.45 399.081 129.31 406.292 129.31C406.292 129.31 409.647 129.432 412 128.46L410.133 121.128Z" fill="white"/>
<path d="M262.533 111.428C262.503 115.572 262.533 128.445 262.533 128.445V128.46H253.304V95.6551H261L262.124 99.6931C263.733 97.1883 265.767 95.6399 268.788 95.0934C272.158 94.4862 275.073 94.8657 277.684 96.2319C279.353 97.1124 280.674 98.4938 281.615 100.346C281.63 100.315 281.661 100.27 281.691 100.24C282.071 99.7237 282.45 99.2071 282.86 98.7215C284.484 96.8088 286.61 95.6095 289.175 95.1238C291.725 94.6532 294.17 94.7443 296.462 95.4274C299.088 96.2016 301.107 97.8411 302.443 100.285C303.445 102.107 304.022 104.186 304.219 106.615C304.31 107.799 304.356 108.862 304.356 109.894V128.475H295.171C295.171 128.475 295.202 114.145 295.171 109.484C295.156 108.057 294.822 106.782 294.215 105.689C293.577 104.566 292.682 103.883 291.452 103.579C289.934 103.2 288.659 103.26 287.323 103.777C285.608 104.429 284.454 105.75 283.786 107.799C283.437 108.862 283.27 110.061 283.27 111.428V128.445H274.298V109.743C274.298 108.619 274.238 107.298 273.721 106.084C273.008 104.369 271.718 103.473 269.759 103.352C268.287 103.26 267.042 103.473 265.949 103.989C264.203 104.824 263.384 106.266 262.898 108.316C262.67 109.302 262.533 110.35 262.533 111.428Z" fill="white"/>
<path d="M160.49 120.627C167.464 91.6377 149.617 62.4837 120.627 55.5099C91.6377 48.536 62.4837 66.3833 55.5099 95.3728C48.536 124.362 66.3833 153.516 95.3728 160.49C124.362 167.464 153.516 149.617 160.49 120.627Z" fill="white"/>
<path d="M61.7842 107.994C61.7842 82.5169 82.522 61.7791 107.999 61.7791C133.491 61.7791 154.213 82.5169 154.213 107.994C154.213 118.248 150.922 127.924 144.705 136.045L121.529 112.87C122.108 111.285 122.398 109.639 122.398 107.978C122.398 100.04 115.937 93.5792 107.999 93.5792C100.06 93.5792 93.5995 100.04 93.5995 107.978C93.5995 109.639 93.889 111.285 94.468 112.87L71.2922 136.045C65.0754 127.939 61.7842 118.248 61.7842 107.994Z" fill="url(#paint0_linear)"/>
<path d="M99.5268 118.903L107.999 105.693L116.471 118.888L139.433 141.851C130.855 149.82 119.716 154.208 107.999 154.208C96.2812 154.208 85.1428 149.82 76.5643 141.851L99.5268 118.903Z" fill="url(#paint1_linear)"/>
<defs>
<linearGradient id="paint0_linear" x1="107.998" y1="61.7859" x2="107.998" y2="154.209" gradientUnits="userSpaceOnUse">
<stop stop-color="#8FCE3C"/>
<stop offset="1" stop-color="#64A322"/>
</linearGradient>
<linearGradient id="paint1_linear" x1="107.998" y1="61.7859" x2="107.998" y2="154.209" gradientUnits="userSpaceOnUse">
<stop stop-color="#8FCE3C"/>
<stop offset="1" stop-color="#64A322"/>
</linearGradient>
</defs>
</svg>
