<svg width="120" height="120" viewBox="0 0 120 120" fill="none" xmlns="http://www.w3.org/2000/svg">
<path d="M118.322 74.0303C126.071 41.8197 106.241 9.42631 74.0303 1.67762C41.8197 -6.07107 9.42631 13.7592 1.67762 45.9698C-6.07107 78.1803 13.7592 110.574 45.9698 118.322C78.1803 126.071 110.574 106.241 118.322 74.0303Z" fill="white"/>
<path d="M8.64907 59.9929C8.64907 31.6855 31.6912 8.64343 59.9986 8.64343C88.3229 8.64343 111.348 31.6855 111.348 59.9929C111.348 71.387 107.691 82.1377 100.784 91.1616L75.0326 65.4106C75.676 63.6499 75.9977 61.8214 75.9977 59.976C75.9977 51.1553 68.8192 43.9769 59.9986 43.9769C51.1779 43.9769 43.9995 51.1553 43.9995 59.976C43.9995 61.8214 44.3211 63.6499 44.9645 65.4106L19.2136 91.1616C12.306 82.1547 8.64907 71.387 8.64907 59.9929Z" fill="url(#paint0_linear)"/>
<path d="M50.5853 72.115L59.9985 57.4365L69.4118 72.0981L94.9257 97.612C85.3939 106.467 73.0179 111.342 59.9985 111.342C46.9792 111.342 34.6031 106.467 25.0714 97.612L50.5853 72.115Z" fill="url(#paint1_linear)"/>
<defs>
<linearGradient id="paint0_linear" x1="59.9981" y1="8.65109" x2="59.9981" y2="111.344" gradientUnits="userSpaceOnUse">
<stop stop-color="#8FCE3C"/>
<stop offset="1" stop-color="#64A322"/>
</linearGradient>
<linearGradient id="paint1_linear" x1="59.9981" y1="8.65109" x2="59.9981" y2="111.344" gradientUnits="userSpaceOnUse">
<stop stop-color="#8FCE3C"/>
<stop offset="1" stop-color="#64A322"/>
</linearGradient>
</defs>
</svg>
