<svg width="466" height="216" viewBox="0 0 466 216" fill="none" xmlns="http://www.w3.org/2000/svg">
<path d="M190.537 95.5078H202.828L188.107 111.832L204.273 129.952H192.204C191.918 129.952 179.357 115.231 179.357 115.231V129.936H169.654V85.4716H179.357V109.323L190.537 95.5078Z" fill="white"/>
<path fill-rule="evenodd" clip-rule="evenodd" d="M203.447 112.642C203.447 102.622 211.562 94.4914 221.566 94.4914C231.571 94.4914 239.685 102.622 239.685 112.642C239.685 122.663 231.571 130.793 221.566 130.793C211.562 130.793 203.447 122.679 203.447 112.642ZM212.975 112.658C212.975 117.66 216.818 121.71 221.566 121.71C226.314 121.71 230.157 117.66 230.157 112.658C230.157 107.656 226.314 103.607 221.566 103.607C216.818 103.607 212.975 107.656 212.975 112.658Z" fill="white"/>
<path fill-rule="evenodd" clip-rule="evenodd" d="M305.699 112.642C305.699 102.622 313.814 94.4914 323.818 94.4914C333.822 94.4914 341.937 102.622 341.937 112.642C341.937 122.663 333.822 130.793 323.818 130.793C313.814 130.793 305.699 122.679 305.699 112.642ZM315.227 112.658C315.227 117.692 319.07 121.773 323.818 121.773C328.566 121.773 332.409 117.692 332.409 112.658C332.409 107.624 328.566 103.543 323.818 103.543C319.07 103.543 315.227 107.624 315.227 112.658Z" fill="white"/>
<path fill-rule="evenodd" clip-rule="evenodd" d="M365.201 94.4914C355.197 94.4914 347.082 102.622 347.082 112.642C347.082 122.679 355.197 130.793 365.201 130.793C375.206 130.793 383.321 122.663 383.321 112.642C383.321 102.622 375.206 94.4914 365.201 94.4914ZM365.201 121.773C360.453 121.773 356.61 117.692 356.61 112.658C356.61 107.624 360.453 103.543 365.201 103.543C369.95 103.543 373.793 107.624 373.793 112.658C373.793 117.692 369.934 121.773 365.201 121.773Z" fill="white"/>
<path d="M410.047 122.234C406.41 122.853 404.346 121.392 403.488 120.503C402.599 119.582 401.948 118.089 401.948 117.121V103.67H411V95.5554H401.948V86.1862H392.356V95.5554H385.798V103.67H392.356V117.105C392.356 124.648 398.486 130.777 406.029 130.777C406.029 130.777 409.539 130.904 412 129.888L410.047 122.234Z" fill="white"/>
<path d="M255.645 112.087C255.613 116.422 255.645 129.888 255.645 129.888V129.904H245.99V95.5872H254.041L255.216 99.8113C256.9 97.1911 259.027 95.5713 262.188 94.9997C265.713 94.3645 268.762 94.7615 271.493 96.1907C273.24 97.1117 274.622 98.5568 275.606 100.494C275.622 100.462 275.654 100.415 275.686 100.383C276.082 99.8433 276.48 99.3029 276.908 98.795C278.608 96.7941 280.831 95.5396 283.515 95.0314C286.182 94.5391 288.739 94.6344 291.137 95.349C293.884 96.1589 295.996 97.874 297.394 100.431C298.442 102.336 299.045 104.512 299.252 107.053C299.347 108.291 299.395 109.403 299.395 110.483V129.92H289.787C289.787 129.92 289.819 114.929 289.787 110.054C289.771 108.561 289.422 107.227 288.787 106.084C288.12 104.909 287.183 104.194 285.897 103.877C284.309 103.48 282.975 103.543 281.577 104.083C279.783 104.766 278.576 106.147 277.877 108.291C277.512 109.403 277.337 110.657 277.337 112.087V129.888H267.952V110.324C267.952 109.149 267.889 107.767 267.349 106.497C266.602 104.702 265.252 103.765 263.204 103.638C261.664 103.543 260.361 103.765 259.218 104.305C257.392 105.179 256.534 106.687 256.026 108.831C255.788 109.863 255.645 110.959 255.645 112.087Z" fill="white"/>
<path d="M54 108C54 81.5391 75.5391 60 102 60C128.477 60 150 81.5391 150 108C150 118.651 146.582 128.7 140.125 137.136L116.053 113.064C116.655 111.418 116.955 109.709 116.955 107.984C116.955 99.7389 110.245 93.0287 102 93.0287C93.7547 93.0287 87.0445 99.7389 87.0445 107.984C87.0445 109.709 87.3452 111.418 87.9466 113.064L63.8754 137.136C57.4184 128.716 54 118.651 54 108Z" fill="white"/>
<path d="M93.2008 119.316L102 105.594L110.799 119.316L134.649 143.165C125.739 151.442 114.17 156 102 156C89.8299 156 78.2611 151.442 69.3512 143.165L93.2008 119.316Z" fill="white"/>
</svg>
